<svg width="220.6557" height="196.773" xmlns="http://www.w3.org/2000/svg"><path fill="#7aba5c" d="m169.664 12.9175 1.8537-.027.032 9.575c-.6228-.1755-1.2125-.2055-1.8515-.1253z" style="stroke-width:.25"/><path fill="#444a50" d="M169.6982 22.3402c.639-.0802 1.2288-.0502 1.8515.1253.8085.3685 1.4167.8982 1.7563 1.7367a3.0732 3.0732 0 0 1-.0666 2.45c-.2307.4918-.6062.7853-1.0197 1.1175l-1.3222.285c-.707.001-1.2708-.1237-1.9388-.3347-.0115-.0115-.0228-.0233-.0345-.0343-.196-.1845-.4015-.367-.5707-.577-.488-.6057-.6778-1.5412-.5748-2.3002.1415-1.0425.7518-1.7353 1.5778-2.324z" style="stroke-width:.25"/><path fill="#d5d2d1" d="m203.796 130.0742 5.417-.0263c-.0678 3.3445-.0447 6.6935-.0495 10.0388-1.8118-.1683-3.597-.5238-5.4098-.6843.1628-3.084.04-6.2367.0422-9.3282z" style="stroke-width:.25"/><path fill="#444a50" d="m205.2885 132.3125 2.2877-.005-.009 2.7385-2.3247-.002c.0007-.9103.0265-1.821.0463-2.731z" style="stroke-width:.25"/><path fill="#7aba5c" d="M30.064 137.4832c2.1877-.3617 4.3692-.7712 6.5342-1.2515 1.0437-.2315 6.6312-1.7377 7.2138-1.693.089.007.167.063.2504.0945l-.0044 6.9333c-1.366.4657-4.935.392-6.6426.622-2.2002.2947-4.4177.5047-6.6082.861l.0032 2.671.0227 1.7297c.0678 2.1308.3433 13.6815-.1025 14.9425-2.1602-3.3942-4.64-6.6037-6.851-9.973-2.6742-4.075-5.0617-8.5617-7.0637-13.0057 4.4383-.381 8.8563-1.2045 13.248-1.9308z" style="stroke-width:.25"/><path fill="#6a9d42" d="M37.4154 142.1885c3.9138-3.0598 4.4378-2.9695 6.647-7.5553l-.0044 6.9333c-1.366.4657-4.935.392-6.6426.622z" style="stroke-width:.25"/><path fill="#fbc64f" d="m7.677 125.7877 7.4477.0125c2.1755.2228 4.4577.0605 6.6482.0455 2.428-.0168 4.8988.0685 7.3208-.0575.337.0003.6783-.051.96.1625.1823 1.3965.042 2.9355.0283 4.347l-.018 7.1855c-4.3918.7263-8.8098 1.5498-13.248 1.9308-3.054.2605-6.0815.4672-9.147.5332z" style="stroke-width:.25"/><path fill="#fcdf86" d="m10.5395 128.1655 3.266.012-.0075 2.8775-3.2586-.0003zM10.5755 133.853l3.25-.01c.022.9492.0035 1.9007-.0023 2.85-1.0948.07-2.197.0505-3.294.0532-.0062-.9643-.0293-1.9313.0462-2.8933z" style="stroke-width:.25"/><path fill="#92d3d8" d="M31.8914 56.667c.6263.13 1.2295.1402 1.8653.1497-.1578 7.4688-.0542 14.957-.0405 22.4278.0055 3.0805.1787 6.2632.008 9.334-.181.022-.525.0057-.643.1492-.3382.4105-.3362 1.149-.2417 1.6483.0582.3065.0937.545.329.7677l.439.1478c.3407.9502.1274 8.0597.128 9.6582l-9.129.0442c-.3018-3.2827-.5665-6.5627-.5525-9.8622.0395-9.2603 1.9322-18.6238 4.9925-27.3433.8465-2.4122 1.935-4.7332 2.845-7.1215z" style="stroke-width:.25"/><path fill="#d5492a" d="M172.2197 27.7697c3.9395 5.531 8.0983 10.96 12.5672 16.0783 3.4545 3.9562 7.1293 7.7032 10.665 11.5842-8.1972-.1142-16.408-.0185-24.6065-.0112.3683-9.0978-.417-18.2738.052-27.3663z" style="stroke-width:.25"/><path fill="#ea6834" d="M31.8914 56.667c-.8942-.586-2.1602-1.177-2.411-2.3233-.0475-.2172-.0747-.4052-.0065-.6197.3233-1.0158 1.1268-2.0688 1.6675-2.993.785-1.342 1.5338-2.7073 2.2888-4.0663 3.919-7.0535 7.7095-14.2265 11.4228-21.3912l3.9992-7.7325c.6095-1.178 1.1585-2.4273 1.8412-3.5615.2513.1202.3063.3932.424.6402-.2467.3628-.2522.4668-.2865.9033-.101 1.2805-.036 2.608-.0367 3.895l-.001 7.2165-.0622 20.5227c-.0198 3.2028.082 6.452-.0585 9.6473l-.095.0205-16.8208-.0082c-.6357-.0095-1.239-.0198-1.8652-.1498z" style="stroke-width:.25"/><path fill="#d5492a" d="M50.6724 56.8045c.1405-3.1953.0388-6.4445.0585-9.6473l.0623-20.5227.001-7.2165c.0008-1.287-.0643-2.6145.0367-3.895.0343-.4365.0398-.5405.2865-.9033 1.1288 2.0963 2.217 4.2345 3.4568 6.2675l12.7422 23.4415c1.0835 1.981 2.1713 3.9633 3.2955 5.9215.6323 1.101 1.4223 2.2088 1.8963 3.3818-.4185 1.1955-.9353 2.16-2.1315 2.7395-.5305.257-1.1215.3932-1.6998.4982-1.9552-.145-4.001-.0252-5.9685-.0295z" style="stroke-width:.25"/><path fill="#444a50" d="M195.8092 124.5422c5.2417-.0165 10.4947-.108 15.7353-.0235l-.002 5.434c-.7768.0733-1.5498.084-2.329.0952l-5.417.0263c-.002 3.0915.1204 6.2443-.0423 9.3283l-.056.008c-2.3697 6.055-6.0957 11.9925-10.0692 17.121-1.521 1.9632-3.2285 3.7907-4.717 5.7745.087-5.0995.0172-10.2068.0658-15.3075l.007-1.551c-.0177-1.1635.031-2.3313.0578-3.4948-4.4358-.4155-8.789-.9405-13.2478-1.1305.0225-1.996.008-3.9922-.002-5.9882-.0275-1.6038-.002-3.2118.0003-4.816l-2.0623-.014-.002-5.471z" style="stroke-width:.25"/><path fill="#a8a59e" d="m175.7925 130.0177 24.6272.0128c3.6795-.004 7.457-.3247 11.1222-.0778-.7767.0733-1.5497.084-2.329.0952l-5.417.0263c-.002 3.0915.1206 6.2443-.0421 9.3283l-.056.008c-1.245-.5615-3.8776-.666-5.3188-.9113l-22.5867-3.6652c-.0276-1.6038-.002-3.2118.0002-4.816z" style="stroke-width:.25"/><path fill="#7aba5c" d="m175.7922 134.8337 22.5867 3.6653c1.4413.2452 4.0738.3497 5.3188.9112-2.3697 6.055-6.0957 11.9925-10.0693 17.121-1.521 1.9633-3.2285 3.7908-4.717 5.7745.087-5.0995.0172-10.2067.0658-15.3075l.007-1.551c-.0177-1.1635.031-2.3312.0578-3.4947-4.4357-.4155-8.789-.9405-13.2477-1.1305.0225-1.996.008-3.9923-.002-5.9883zM53.8837 176.62c.6095-.0983 1.1903.072 1.776.229 1.914.5132 3.7695 1.3177 5.6595 1.9205 3.959 1.262 8.0183 2.2952 12.0962 3.0892 9.636 1.8765 20.5468 2.6835 30.3796 2.8165 16.2634.2203 32.3007-1.4395 48.2067-4.812 3.7393-.793 7.4752-1.6282 11.156-2.6627 1.2555-.3528 2.5275-.6983 3.7655-1.1063.4235-.1397.8805-.4427 1.3173-.5015.4172-.056.5887.1188.8997.3463l-.0105.0838c-.0613.0273-.1232.0538-.1842.082-1.3883.645-3.2398 2.3347-4.6088 3.2495-3.6842 2.4622-7.5632 4.8305-11.5032 6.8612-22.0033 11.3413-47.38 13.92-70.9535 5.906-8.6668-2.9465-16.9305-7.4975-24.3463-12.8297-1.2067-.8678-2.518-1.7103-3.65-2.6718z" style="stroke-width:.25"/><path fill="#f99d37" d="m33.7355 100.9497 7.1537-.0178-.089 13.1045 4.995.0003-.019 11.7302c2.0817-.007 4.2315.0973 6.3037-.0692 1.9.0127 3.8003-.02 5.7003-.0443-.1288 4.8943-.02 9.8033-.027 14.7-.0413.516-.0722 1.024-.0678 1.5418-3.0674-.3128-10.7827-.9813-13.6274-.3288l.0045-6.9332c-.0835-.0315-.1615-.0877-.2505-.0945-.5825-.0447-6.17 1.4615-7.2138 1.693-2.165.4802-4.3465.8897-6.5342 1.2515l.018-7.1855c.0137-1.4115.154-2.9505-.0283-4.347-.2817-.2135-.623-.1623-.96-.1625-2.422.126-4.8927.0408-7.3207.0575-2.1905.015-4.4728.1772-6.6483-.0455.0798-3.9203.0055-7.8585-.042-11.7798l4.1983-.004c.187-4.3315-.0145-8.7452-.0585-13.0815 1.796.0473 3.5875.071 5.384.0585z" style="stroke-width:.25"/><path fill="#fbc64f" d="m33.7355 100.9497 7.1537-.0178-.089 13.1045c-3.8815-.077-7.7715-.004-11.6545-.0455-3.289.0005-6.5755-.0352-9.8647.026.187-4.3315-.0145-8.7452-.0585-13.0815 1.796.0473 3.5875.071 5.384.0585z" style="stroke-width:.25"/><path fill="#fcdf86" d="M22.319 104.0542c1.0762-.0385 2.1557-.025 3.2325-.0265l-.0032 2.5313-3.211.0125zM23.34 109.474c.7677-.0385 1.537-.0233 2.3055-.019-.0145.8362.2862 2.1307-.227 2.8297l-.4676.0328-2.637.0177c-.0072-.8402-.1862-1.7425.0983-2.5427.3187-.2948.505-.261.9277-.3185z" style="stroke-width:.25"/><path fill="#d0a46d" d="m50.6724 56.8045 12.036.0357c1.9676.0042 4.0133-.1155 5.9686.0295-.0926 6.9778.0081 13.9655.0047 20.9443l-.0102 6.9927c-.002 1.2065-.093 2.5073.055 3.7025-1.7935.3053-3.9625.085-5.7892.0793-4.0893-.0125-8.182-.066-12.271-.004l-.0763-.0053c-2.742.1677-5.539.0395-8.288.035-2.8492-.0048-5.736.1102-8.5777-.0358.1707-3.0707-.0025-6.2535-.008-9.334-.0138-7.4707-.1173-14.959.0405-22.4277l16.8207.0082z" style="stroke-width:.25"/><path fill="#444a50" d="M50.6874 68.3337c1.4288.1815 2.7326.666 3.623 1.8673.424.5717.689 1.2317.8133 1.9305.267 1.502.074 3.2752.0628 4.8067l-.0146 7.7128-4.5397-.0355-4.7262.0202.0028-7.6625c-.0085-1.5362-.1693-3.2302.0867-4.7467.1308-.7755.437-1.526.9265-2.145.949-1.2005 2.3015-1.6128 3.7655-1.7478z" style="stroke-width:.25"/><path fill="#ae9065" d="m50.6724 56.8045 12.036.0357c1.9676.0042 4.0133-.1155 5.9686.0295-.0926 6.9778.0081 13.9655.0047 20.9443l-.0102 6.9927c-.002 1.2065-.093 2.5073.055 3.7025-1.7935.3053-3.9625.085-5.7892.0793-4.0893-.0125-8.182-.066-12.271-.004l-.0763-.0053c.2028-1.253.0565-2.692.0423-3.9638l4.5397.0355.0145-7.7127c.0112-1.5315.2042-3.3048-.0628-4.8068-.1242-.6987-.3892-1.3587-.8132-1.9305-.8905-1.2012-2.1942-1.6857-3.623-1.8672-.0165-1.8863.2115-10.4225-.11-11.5088z" style="stroke-width:.25"/><path fill="#ae9065" d="M68.7264 88.5092c.1988.077.3586.0653.4353.2818.2405.679.126 1.4282.013 2.1202-.1737.2308-.1595.2183-.445.2653l-.176.1102-.0293 1.5878c.0473 1.6237-.304 5.9225.1733 7.152l4.778-5.9915 9.2133.1082c-2.0373 2.8295-4.2148 5.531-6.3785 8.263-1.1526 1.4553-2.454 2.93-3.4276 4.509l-.0634.0192c-.0024 1.3525.1272 2.7853.0447 4.1263.396 1.2265.9197 1.9925 2.009 2.6982l.509.3953c.085 7.3387-.1087 14.6955.0587 22.03l.0688 8.5217c-1.297-.294-2.6385-.4895-3.9485-.727-4.5103-1.0212-9.2145-1.5167-13.7955-2.1122l-.0125-1.5133c.007-4.8967-.1018-9.8057.027-14.7-1.9.0242-3.8003.057-5.7003.0443-2.0722.1665-4.222.0625-6.3037.0692l.019-11.7302-4.995-.0003.089-13.1045-7.1538.0178c-.0005-1.5985.2128-8.708-.128-9.6582l-.439-.1478c-.2352-.2227-.2707-.4612-.329-.7677-.0945-.4993-.0965-1.2378.2418-1.6483.118-.1435.462-.1272.643-.1492 2.8417.146 5.7285.031 8.5777.0357 2.749.0045 5.546.1328 8.288-.035l.0763.0053c4.089-.062 8.1817-.0085 12.271.004 1.8268.0058 3.9958.226 5.7893-.0792z" style="stroke-width:.25"/><path fill="#d5492a" d="M71.5455 112.6452c-.3153.283-.6486.5605-1.009.784-1.247.7735-2.7183 1.0003-4.135.605-1.1673-.3255-2.1483-1.0767-2.719-2.1505-.6408-1.206-.932-3.719-.5498-5.0792 3.191.0328 6.5107-.127 9.6867.13-.0023 1.3525.1273 2.7852.0448 4.1262-.49.4965-.8998 1.0285-1.3188 1.5845z" style="stroke-width:.25"/><path fill="#ea6834" d="m73.4757 94.035 9.2133.1082c-2.0373 2.8295-4.2148 5.531-6.3785 8.263-1.1526 1.4553-2.454 2.93-3.4276 4.509l-.0634.0192c-3.176-.257-6.4958-.0972-9.6868-.13 1.8853-2.2055 3.9173-4.388 5.565-6.778z" style="stroke-width:.25"/><path fill="#006883" d="M72.8642 111.0607c.396 1.2265.9197 1.9925 2.009 2.6983l.509.3952c.085 7.3388-.1087 14.6955.0587 22.03l.0688 8.5218c-1.297-.294-2.6385-.4895-3.9485-.727.06-5.2768.01-10.5588.0118-15.836.0015-5.1648.0565-10.3335-.0275-15.4978.419-.556.8287-1.088 1.3187-1.5845z" style="stroke-width:.25"/><path fill="#d0a46d" d="M68.7264 88.5092c.1988.077.3586.0653.4353.2818.2405.679.126 1.4282.013 2.1202-.1737.2308-.1595.2183-.445.2653l-.176.1102-.0293 1.5878c-.1222-.4663-.1967-.9465-.333-1.407-2.189-.1348-4.4214-.031-6.617-.0275l-10.8422-.0218c-.183 7.6288-.1933 15.2478-.2082 22.8808l-.0128 7.0537c-.0015 1.3795-.072 2.8018.0568 4.1755.4615.174 1.0195.1428 1.512.1695-2.0723.1665-4.222.0625-6.3038.0692l.019-11.7302-4.995-.0003.089-13.1045-7.1537.0178c-.0006-1.5985.2127-8.708-.128-9.6582l-.439-.1478c-.2353-.2227-.2708-.4612-.329-.7677-.0946-.4993-.0966-1.2378.2417-1.6483.118-.1435.462-.1272.643-.1492 2.8418.146 5.7285.031 8.5777.0357 2.749.0045 5.546.1328 8.288-.035l.0763.0053c4.089-.062 8.1817-.0085 12.271.004 1.8268.0058 3.9958.226 5.7893-.0792z" style="stroke-width:.25"/><path fill="#585555" d="M68.7264 88.5092c.1988.077.3586.0653.4353.2818.2405.679.126 1.4282.013 2.1202-.1737.2308-.1595.2183-.445.2653l-.176.1102-24.5252-.0535-6.7525-.031c-1.173-.0055-2.5298-.1525-3.6685.0893l-.439-.1478c-.2353-.2227-.2708-.4612-.329-.7677-.0945-.4993-.0965-1.2378.2417-1.6483.118-.1435.462-.1272.643-.1492 2.8418.146 5.7285.031 8.5778.0357 2.749.0045 5.546.1328 8.288-.035l.0762.0053c4.089-.062 8.1818-.0085 12.271.004 1.8268.0058 3.9958.226 5.7893-.0792z" style="stroke-width:.25"/><path fill="#444a50" d="M68.7264 88.5092c.1988.077.3586.0653.4353.2818.2405.679.126 1.4282.013 2.1202-.1737.2308-.1595.2183-.445.2653-6.0435-.1103-12.102-.0368-18.147-.034.0003-.8553.0368-1.7043.0835-2.558 4.089-.062 8.1818-.0085 12.271.004 1.8268.0058 3.9958.226 5.7893-.0793z" style="stroke-width:.25"/><path fill="#f38c33" d="M0 162.3802c10.2347.089 20.4692-.0192 30.7045.1363.3745 1.6887.0712 4.0557.0887 5.82 2.4395-.553 5.0398-.8003 7.5305-1.0115 9.274-.7873 18.3227.4152 27.401 2.3202 4.6775.9815 9.316 2.144 14.014 3.029 8.5783 1.6158 17.1137 2.631 25.8493 2.8545 10.685.2735 22.4362-.8107 32.9277-2.7802 9.9045-1.859 19.7407-4.3923 29.8042-5.271 6.912-.6035 13.697-.2543 20.5925.356-.0195-1.7818-.082-3.5975.0493-5.3745 1.69.139 3.4155.0662 5.1105.0525l7.8523-.0583c6.2322-.0247 12.507.1685 18.7312-.0422-3.726 3.5982-7.2802 7.3942-10.9105 11.0905 2.1805 2.3202 4.2885 4.7092 6.4155 7.0785 1.3408 1.4932 2.7485 2.9512 4.0013 4.5182l-51.0523-.041c-.0292-1.2537-.0848-2.541.0367-3.7895-.105-1.727-.015-3.5117-.0167-5.245l.0105-.0838c-.311-.2275-.4825-.4022-.8997-.3462-.4368.0588-.8938.3617-1.3173.5015-1.238.408-2.51.7535-3.7655 1.1062-3.6807 1.0345-7.4167 1.8698-11.156 2.6628-15.906 3.3725-31.9432 5.0322-48.2067 4.812-9.8328-.133-20.7435-.94-30.3795-2.8165-4.078-.794-8.1373-1.8273-12.0963-3.0893-1.89-.6027-3.7455-1.4072-5.6595-1.9205-.5857-.157-1.1665-.3272-1.776-.229-.7147-.4027-1.396-.9482-2.0712-1.4185l-.0413 5.2775c.0808 1.507.016 3.0498.0128 4.5608-5.6295.121-11.2845.016-16.9168.0205l-34.6778.036c1.1347-1.3555 2.4243-2.606 3.65-3.8805 2.4524-2.55 4.9153-5.0705 7.2101-7.7663C7.3055 169.813 3.6356 166.127 0 162.3802Z" style="stroke-width:.25"/><path fill="#b86220" d="M31.14 174.3815c5.5907-1.7568 14.837-1.8843 20.6617-1.5103l.0107 2.3303-.0412 5.2775c-.1345 1.1252-.0805 2.3027-.0895 3.4365-3.2917-3.4533-9.4705-5.6548-13.9337-7.2315-1.0448-.369-6.4435-1.79-6.791-2.1885zM169.1774 172.481c5.5315-.2845 10.9063-.3558 16.4188.3315 1.0917.136 2.3447.2177 3.3752.5975-.8887.8325-3.967 1.9332-5.2435 2.5-4.8792 2.1667-10.4402 4.3682-14.5302 7.88-.002-.829.0485-1.7008-.0513-2.5223-.105-1.727-.015-3.5117-.0167-5.245l.0105-.0838c.1067-1.1287.0337-2.3215.0373-3.458z" style="stroke-width:.25"/><path fill="#fbc64f" d="M30.7932 168.3365c2.4395-.553 5.0397-.8003 7.5305-1.0115 9.274-.7873 18.3227.4152 27.401 2.3202 4.6775.9815 9.316 2.144 14.014 3.029 8.5783 1.6158 17.1137 2.631 25.8493 2.8545 10.685.2735 22.4362-.8107 32.9277-2.7802 9.9045-1.859 19.7407-4.3923 29.8042-5.271 6.912-.6035 13.697-.2543 20.5925.356l-.002 1.7732c-12.531-1.3935-21.5455-.8992-33.9262 1.4705-5.3798 1.0298-10.705 2.3285-16.1043 3.2698-10.0042 1.744-20.1575 2.777-30.3177 2.7637-8.3043-.0108-16.6173-.7032-24.7998-2.1165-15.184-2.6227-29.3497-7.345-44.9922-6.0977-2.625.2092-5.4313.4867-7.975 1.1827z" style="stroke-width:.25"/><path fill="#6a9d42" d="M51.8017 172.8712c7.4095.5953 14.8332 2.6673 22.0783 4.267 6.6932 1.4778 13.5092 2.5868 20.3332 3.2355 15.5968 1.483 31.4165.202 46.7875-2.6735 6.331-1.1845 12.5868-2.7485 18.9245-3.905 3.0673-.5597 6.1578-.9432 9.2523-1.3142-.004 1.1365.0694 2.3292-.0374 3.458-.311-.2275-.4824-.4023-.8997-.3463-.4368.0588-.8938.3618-1.3173.5015-1.238.408-2.51.7535-3.7655 1.1063-3.6807 1.0345-7.4167 1.8697-11.156 2.6627-15.906 3.3725-31.9432 5.0323-48.2067 4.812-9.8328-.133-20.7435-.94-30.3795-2.8165-4.078-.794-8.1373-1.8272-12.0963-3.0892-1.89-.6028-3.7455-1.4073-5.6595-1.9205-.5857-.157-1.1665-.3273-1.776-.229-.7147-.4028-1.396-.9483-2.0712-1.4185z" style="stroke-width:.25"/><path fill="#92d3d8" d="M54.5742 20.8872c2.2683-1.933 4.5652-3.871 7.0068-5.5842 2.1144-1.4835 4.4167-2.7955 6.6644-4.0665C83.028 2.8767 99.8274-1.0973 116.7982.2617c14.9203 1.1948 29.8003 6.2685 42.3265 14.4815 2.0248 1.3278 4.1055 2.7295 5.993 4.2478 1.3093 1.0532 2.8157 2.708 4.2387 3.4935-.826.5887-1.4362 1.2815-1.5777 2.324-.103.759.0868 1.6945.5748 2.3002.1692.21.3747.3925.5707.577.0117.011.023.0228.0345.0343.668.211 1.2318.3357 1.9388.3347-.469 9.0925.3162 18.2685-.052 27.3663 8.1985-.0072 16.4092-.103 24.6065.0112l4.9857.0125-.002 6.4473c-1.4797-.0205-2.974-.0865-4.4507.0237-.1315 4.5768.1035 9.1685-.05 13.7423l-.0122 2.2807-50.3883-.0212c.006 2.229.2805 15.149-.1898 16.2927l-.1477.136c-.9397-.1535-1.9832-.0762-2.9362-.0735-1.8903.005-3.783.039-5.6723-.0372-1.3818-.2618-5.8682-.0963-7.413.0235-.6362.0237-1.2632.074-1.892-.048l-.1138-.0258-6.5702-.0145c-2.1885-.0592-4.3885-.0105-6.5782-.007l-6.0748-.006-.9317-.0502c-1.027.1692-2.2563.0302-3.2995.0018a123.4707 123.4707 0 0 0-4.503-.0378c-2.0035.0495-4.0053.0403-6.0093.0285l-1.7542-.0027c-2.8618-.1912-5.8828.0008-8.7598.046l-9.2132-.1082-4.778 5.9915c-.4773-1.2295-.126-5.5283-.1733-7.152l.0293-1.5878.176-.1102c.2855-.047.2712-.0345.445-.2653.113-.692.2275-1.4412-.013-2.1202-.0768-.2165-.2365-.2048-.4353-.2818-.148-1.1952-.057-2.496-.055-3.7025l.0103-6.9927c.0035-6.9788-.0973-13.9665-.0048-20.9443.5782-.105 1.1692-.2412 1.6997-.4982 1.1963-.5795 1.713-1.544 2.1315-2.7395-.474-1.173-1.264-2.2808-1.8962-3.3818-1.1243-1.9582-2.212-3.9405-3.2955-5.9215z" style="stroke-width:.25"/><path fill="#fefdfd" d="M78.6367 24.5802c.6963-.0412 1.4065-.0055 2.0745.213 1.3415.4385 1.9663 1.4263 2.5478 2.6228.177-.0608.3512-.1223.5344-.1618.906-.1955 1.9785-.0482 2.752.482 1.1578.7938 1.4425 2.0825 1.6815 3.372.4423.244.8763.5298 1.2365.8863.577.5715.8796 1.2315.8733 2.0482-.0035.506-.1395.9858-.516 1.3428-1.013.96-5.404.4307-6.9413.4335-1.8445.0018-9.9787.417-10.9822-.1155-.5383-.2858-.9387-.7153-1.0873-1.311a3.7829 3.7829 0 0 1 .4176-2.8483c.7697-1.298 1.9157-1.8572 3.3184-2.2257.07-.0183.4878-.1163.5356-.1813.1122-.1525.24-1.95.6984-2.6912.6716-1.0853 1.6436-1.6058 2.8568-1.8658z" style="stroke-width:.25"/><path fill="#ea6834" d="M168.9587 27.72c.668.211 1.2317.3357 1.9387.3347-.469 9.0925.3163 18.2685-.052 27.3663l-26.4925-.0103c6.3035-6.0637 12.4793-12.315 18.0985-19.0227 1.2903-1.54 2.5723-3.1098 3.7305-4.7528.9023-1.28 1.7175-2.7742 2.7768-3.9152z" style="stroke-width:.25"/><path fill="#fefdfd" d="M135.2074 20.949c.4253-.0298.8575-.065 1.2838-.045 2.2455.1047 3.6757 1.081 5.1467 2.6727 2.0905.1645 3.908.5153 5.3755 2.1835 1.3018 1.4798 1.6775 3.2408 1.5413 5.1523 1.301.0307 2.2435.1622 3.263 1.0805.8847.7965 1.4217 1.8937 1.4587 3.0875.0297.9625-.2462 1.9175-.9382 2.6095-.4995.4992-1.183.8375-1.8723.9777-1.7762.362-6.8792.0885-8.9837.08-2.8233-.0347-5.6525-.0595-8.4758-.0232-1.8912.024-4.166.3342-5.999-.0353-.7727-.156-1.5547-.611-2.1442-1.1247-1.016-.886-1.6173-2.1295-1.708-3.4735-.1048-1.5533.4125-3.0633 1.4805-4.2018 1.2302-1.3117 2.5275-1.6462 4.2467-1.7285.0872-1.4702.3223-2.7962 1.1758-4.0442 1.2162-1.778 3.0677-2.778 5.1492-3.1675z" style="stroke-width:.25"/><path fill="#6a9d42" d="M93.2217 77.7885c3.236-1.5545 6.5142-3.2043 9.4213-5.3263 2.1644-1.58 4.1727-3.3757 6.2092-5.1142l7.9908-6.7763c1.6997-1.4407 3.394-3.0752 5.2592-4.301.2185-.1435.3555-.2165.6242-.211 1.177 2.7778 2.1753 5.6333 3.2916 8.4365 1.3597 3.4155 2.8452 6.8228 4.0544 10.293l-2.861-.006.072 19.4278-.1137-.0258-6.5702-.0145c-2.1886-.0592-4.3886-.0105-6.5783-.007l-6.0747-.006-.9318-.0502c-1.027.1692-2.2562.0302-3.2995.0018a123.4707 123.4707 0 0 0-4.503-.0378c-2.0035.0495-4.0052.0403-6.0092.0285.018-5.4327-.1108-10.8815.0187-16.3115z" style="stroke-width:.25"/><path fill="#55780a" d="M127.1522 78.1057c-.001 5.3533-.0932 10.7285.0175 16.0795l-6.5703-.0145c-2.1885-.0592-4.3885-.0105-6.5782-.007l-6.0747-.006-.9318-.0502c-.5282-.2155-1.2897-.1213-1.8598-.1213 8.201-4.0952 15.5663-9.3217 21.9973-15.8805z" style="stroke-width:.25"/><path fill="#7aba5c" d="M110.3114 13.0185c2.7078 6.9405 5.3103 13.926 8.0925 20.8362-.734.4865-1.4684 1.0265-2.2647 1.403l4.5965 11.4265c1.1547 2.907 2.2525 5.8375 3.4973 8.7075-.475.251-.9738.5755-1.5066.668-.2687-.0055-.4057.0675-.6242.211-1.8653 1.2258-3.5595 2.8603-5.2593 4.301l-7.9907 6.7763c-2.0365 1.7385-4.0448 3.5342-6.2093 5.1142-2.907 2.122-6.1852 3.7718-9.4212 5.3263l.0572-2.2575-3.8252.0127c1.6262-4.3655 3.3787-8.6915 5.0502-13.0412.7935-2.0648 1.6508-4.1263 2.3198-6.2353l-1.0595-.443c.4865-1.444 1.1155-2.8527 1.7397-4.2412 2.031-5.4305 4.662-10.6538 6.8008-16.049-.693-.5688-1.4535-1.0645-2.1898-1.576 2.9913-6.869 5.4245-13.9803 8.1965-20.9395z" style="stroke-width:.25"/><path fill="#d0a46d" d="m144.353 55.4107 26.4924.0103c8.1985-.0072 16.4093-.103 24.6065.0112l4.9858.0125-.002 6.4473c-1.4797-.0205-2.974-.0865-4.4508.0237-.1315 4.5768.1035 9.1685-.05 13.7423l-.0122 2.2807-50.3882-.0212-.0217-2.2608c-.083-4.5755-.041-9.1595-.0547-13.7362l-5.2863.0427.0405-6.5622z" style="stroke-width:.25"/><path fill="#fefdfd" d="m177.7457 66.3087 3.679-.017c.002 2.0198.017 4.0405-.0362 6.0598l-3.617.0317c-.0362-2.0255-.0377-4.0487-.0257-6.0745zM159.7712 66.2737l3.6717-.0142-.017 6.1605-3.6462.0035c-.024-2.049-.006-4.1005-.008-6.1498zM186.5255 66.3237l3.7437-.0115c-.0415 2.0173.023 4.0323-.0618 6.05-1.212.0985-2.458.0475-3.6747.053zM168.766 66.1922l3.8002-.0072-.0203 6.1943-3.788.0355zM150.7902 66.1532l3.7778-.0053c.022 2.0983.002 4.1968-.008 6.295l-3.7663-.012z" style="stroke-width:.25"/><path fill="#b86220" d="m145.5127 75.6567 50.4222.0012-.0122 2.2808-50.3882-.0213z" style="stroke-width:.25"/><path fill="#444a50" d="m144.353 55.4107 26.4924.0103c8.1985-.0072 16.4093-.103 24.6065.0112l4.9858.0125-.002 6.4473c-1.4797-.0205-2.974-.0865-4.4508.0237-16.8322.2228-33.6912-.014-50.527.0048l-5.2862.0428.0405-6.5623z" style="stroke-width:.25"/><path fill="#F99D37" d="m145.5344 77.9175 50.3883.0212-.1135 46.6035-22.0807-.01.002 5.471 2.0622.014c-.002 1.6043-.0277 3.2123-.0002 4.816.01 1.996.0245 3.9923.002 5.9883 4.4587.19 8.812.715 13.2477 1.1305-.0268 1.1635-.0755 2.3312-.0578 3.4947l-.007 1.551c-.0485 5.1008.0212 10.208-.0658 15.3075l.0503.1533c-.1312 1.777-.0687 3.5927-.0493 5.3745-6.8955-.6103-13.6805-.9595-20.5925-.356-10.0635.8787-19.8997 3.412-29.8042 5.271-10.4915 1.9695-22.2428 3.0537-32.9278 2.7802-8.7355-.2235-17.271-1.2387-25.8492-2.8545-4.698-.885-9.3365-2.0475-14.014-3.029-9.0783-1.905-18.127-3.1075-27.401-2.3202-2.4908.2112-5.091.4585-7.5305 1.0115-.0175-1.7643.2857-4.1313-.0888-5.82l.0263-.1238c.4457-1.261.1702-12.8117.1025-14.9425l-.0228-1.7297-.0032-2.671c2.1905-.3563 4.408-.5663 6.6083-.861 1.7075-.23 5.2765-.1563 6.6425-.622 2.8447-.6525 10.56.016 13.6275.3287-.0045-.5177.0265-1.0257.0677-1.5417l.0125 1.5132c4.581.5955 9.2853 1.091 13.7955 2.1123 1.31.2375 2.6515.433 3.9485.727l-.0687-8.5218c-.1675-7.3345.0262-14.6912-.0588-22.03l-.509-.3952c-1.0892-.7058-1.613-1.4718-2.009-2.6983.0825-1.341-.047-2.7737-.0447-4.1262l.0635-.0192c.9735-1.579 2.275-3.0538 3.4275-4.509 2.1637-2.732 4.3412-5.4335 6.3785-8.263 2.877-.0453 5.898-.2373 8.7597-.046l1.7543.0027c2.004.0117 4.0057.021 6.0092-.0285 1.5028-.014 3.0005-.003 4.503.0377 1.0433.0285 2.2725.1675 3.2995-.0018l.9318.0503 6.0747.006c2.1898-.0035 4.3898-.0523 6.5783.007l6.5702.0145.1138.0257c.6287.122 1.2557.0718 1.892.048 1.5447-.1197 6.0312-.2852 7.413-.0235 1.8892.0763 3.782.0423 5.6722.0373.953-.0028 1.9965-.08 2.9363.0735l.1477-.136c.4703-1.1438.1953-14.0638.1898-16.2928z" style="fill:#f99d37;stroke-width:.25"/><path fill="#fefdfd" d="M120.4307 158.5115c.169-.0122.346.0103.515.0205.173.243.193.4368.2308.7265.1814 1.393.1492 2.821.2694 4.2218.1786 2.0797.739 4.709.539 6.7645-.3574.236-.8524.206-1.2717.23-.2878.0105-.4655.004-.7332-.1058-.3023-1.617-.215-3.3762-.34-5.0187-.1678-2.206-.539-4.4708-.534-6.679.3947-.1703.8964-.1413 1.3247-.1598zM109.7112 158.752c.3895-.03.7212-.064 1.1047.0428.3556 1.0593.1993 8.4028.2168 10.228l5.6727-.0785c.005.5043.1496 1.218-.0794 1.6665l-.3.0475c-2.4223.051-4.8483.041-7.271.056-.004-2.587-.096-5.1792-.1736-7.7652-.0391-1.3075-.184-2.6713-.0492-3.9733.248-.206.5632-.182.879-.2237zM83.0302 156.1955l2.1795.4208a237.0687 237.0687 0 0 1 2.679 10.5605c1.592-3.1575 3.511-6.229 4.8135-9.518.6823.1522 1.3907.2395 2.0815.3502l-.7512 1.4368c-1.7795 3.193-3.5968 6.3725-5.2633 9.626-.7737-.1738-1.5717-.2833-2.3535-.4183-.4805-2.1777-1.192-4.3002-1.778-6.451-.5445-1.9995-.9747-4.033-1.6075-6.007zM130.1502 156.8618c1.9483-.1508 3.3235.072 5.0125 1.0675l-1.1915 1.7147c-.713-.5112-1.4107-.8992-2.293-1.022-1.0777-.1497-2.2615.1785-3.1255.836-.8185.623-1.3005 1.5388-1.4342 2.5513-.169 1.2815.2352 2.6157 1.0505 3.6137.738.9038 1.8137 1.5015 2.9855 1.5723 1.4112.085 2.448-.5673 3.441-1.4788.1932-.205.073-.1275.3737-.212.515.2228.8973.6988 1.2873 1.0925-.9333 1.099-1.8375 1.9435-3.2908 2.2865-1.6505.3893-3.66.2313-5.1132-.6707-1.4333-.8893-2.3905-2.4498-2.7568-4.0753-.3657-1.6225-.0542-3.3052.8598-4.6965.9962-1.516 2.4707-2.2325 4.1947-2.5792zM73.8562 154.07c2.419.6498 4.939 1.084 7.394 1.591l-.3508 1.7808c-1.794-.4845-3.6222-.864-5.4254-1.318-.2556 1.1605-.4306 2.348-.6376 3.5185 1.804.368 3.5986.7627 5.3913 1.1815l-.437 1.5042c-.8568-.2292-1.734-.4122-2.601-.5995-.6032-.13-2.188-.583-2.7085-.2477l-.0715.3762-.508 2.853c2.1012.4068 4.1913.9178 6.281 1.3828l-.3132 1.755c-2.722-.8033-5.6068-1.2825-8.3875-1.8585.9265-3.939 1.6072-7.9465 2.3742-11.9193zM99.421 158.5085c.7957.1008 1.614.1325 2.4144.1968 1.2728 3.9867 2.676 7.933 4.084 11.8737l-1.9957.1353c-.3025-1.0448-.7527-2.077-1.1345-3.097l-2.0257-.046a73.9394 73.9394 0 0 1-3.1745-.3625c-.494.961-.8943 1.9842-1.325 2.9757-.6625-.135-1.3375-.201-2.0085-.2822 1.5565-3.8498 3.5555-7.5498 5.1655-11.3938z" style="stroke-width:.25"/><path fill="#F38C33" d="M100.4507 161.0423c.6897.916 1.3498 3.71 1.7377 4.9345l-2.0492-.1748-1.853-.1275z" style="fill:#f99d37;fill-opacity:1;stroke-width:.25"/><path fill="#fefdfd" d="m142.38 154.994.339-.035c.9517.3743 6.705 8.8583 7.7647 10.3268-.6345.2065-1.2617.4387-1.8907.6615l-1.7888-2.4258c-.4863.0717-.9728.1868-1.4555.2815-1.347.263-2.6898.5128-4.0475.7153-.1338 1.0077-.2325 2.023-.3478 3.0332-.6992.0617-1.392.1953-2.084.311.3168-1.6507.4703-3.3532.7025-5.0197.349-2.5045.748-5.006 1.0143-7.521z" style="stroke-width:.25"/><path fill="#F38C33" d="M142.2582 157.143c.9307.776 2.6947 3.8278 3.4845 4.9895l-1.2253.2125-3.0927.5808z" style="fill:#f99d37;fill-opacity:1;stroke-width:.25"/><path fill="#f38c33" d="M98.0802 136.2397c.3008-1.9447.992-3.836 2.0845-5.478 1.798-2.7022 4.7135-4.7065 7.914-5.3105 2.9868-.5635 6.2088.1635 8.7113 1.8715 3.0884 2.108 4.9332 5.2443 5.618 8.866l22.3924.013c-.0162 2.0325-.1257 4.1258.0193 6.1515l.006 1.9928c1.3585-.2778 2.7175-.525 4.0855-.7513 8.9312-2.071 17.7345-2.9122 26.8827-2.7727 4.4588.19 8.812.715 13.2477 1.1305-.0267 1.1635-.0754 2.3312-.0577 3.4947l-.007 1.551c-2.522-.239-5.0293-.5995-7.556-.7965-5.8283-.4542-11.7545-.446-17.5803.0548-7.3332.6303-14.4582 2.3438-21.6865 3.6178-11.055 1.9485-22.2303 3.2525-33.4675 3.2837-8.584.024-17.0712-.6847-25.5388-2.1055-3.7344-.6267-7.4237-1.497-11.1407-2.2175-13.942-2.7027-27.069-4.4707-41.1742-1.3847l-.0228-1.7298-.0032-2.671c2.1905-.3562 4.408-.5662 6.6083-.861 1.7075-.23 5.2765-.1562 6.6425-.622 2.8447-.6525 10.56.016 13.6275.3288-.0045-.5178.0265-1.0258.0677-1.5418l.0125 1.5133c4.581.5955 9.2853 1.091 13.7955 2.1122 1.31.2375 2.6515.433 3.9485.727l-.0688-8.5217.1263-.009c5.0895.0733 10.186.019 15.2765.019 2.3977 0 4.8442-.0902 7.2365.0453z" style="stroke-width:.25"/><path fill="#d0a46d" d="m122.408 136.1887 22.3924.013c-.0162 2.0325-.1257 4.1258.0193 6.1515l.006 1.9928c-4.1448.6717-8.2853 1.4307-12.446 1.9925-3.2618.4402-6.6315.6675-9.86 1.278.038-3.8023-.0325-7.6265-.112-11.4278zM75.5672 136.1755c5.0895.0733 10.186.019 15.2765.019 2.3977 0 4.8442-.0902 7.2365.0453-.2477 3.891-.112 7.862-.1235 11.7642-1.0942-.2782-2.273-.3432-3.3927-.475l-5.8113-.71c-4.4448-.5785-8.8255-1.3712-13.243-2.113l-.0688-8.5217z" style="stroke-width:.25"/><path fill="#fbc64f" d="M30.8104 145.7205c10.208-1.7705 20.2455-1.9855 30.5013-.424 8.4273 1.2832 16.7155 3.35 25.1393 4.667 7.3565 1.15 14.768 1.66 22.211 1.6502 9.2164-.012 18.5082-.883 27.6054-2.3417 6.9403-1.113 13.7923-2.6983 20.7453-3.7473 7.8377-1.1825 15.7193-1.5037 23.6253-.9315 2.7744.2008 5.6087.3535 8.3462.854l-.007 1.551c-2.522-.239-5.0293-.5995-7.556-.7965-5.8283-.4542-11.7545-.446-17.5803.0548-7.3332.6303-14.4582 2.3438-21.6865 3.6178-11.055 1.9485-22.2302 3.2525-33.4675 3.2837-8.584.024-17.0712-.6847-25.5387-2.1055-3.7345-.6267-7.4238-1.497-11.1408-2.2175-13.942-2.7027-27.069-4.4707-41.1742-1.3847z" style="stroke-width:.25"/><path fill="#5b808a" d="M98.0802 136.2397c.3008-1.9447.992-3.836 2.0845-5.478 1.798-2.7022 4.7135-4.7065 7.914-5.3105 2.9868-.5635 6.2088.1635 8.7113 1.8715 3.0884 2.108 4.9332 5.2443 5.618 8.866.0794 3.8013.15 7.6255.112 11.4278-6.0493.621-12.1518.7542-18.2276.704-2.0127-.0168-4.3777.114-6.3357-.3165.0115-3.9023-.1242-7.8733.1235-11.7643z" style="stroke-width:.25"/><path fill="#d5d2d1" d="M93.203 94.1c2.004.0117 4.0057.021 6.0092-.0285 1.5028-.014 3.0005-.003 4.503.0377 1.0433.0285 2.2725.1675 3.2995-.0018l.9317.0503 6.0748.006c2.1897-.0035 4.3897-.0523 6.5782.007l6.5703.0145.1137.0257c.6288.122 1.2558.0718 1.892.048.5998 1.3273 1.4783 2.576 2.2658 3.7998 1.8912 2.9395 4.073 5.894 5.708 8.9755l.4787 1.5257-.2502 1.5988c.8052 1.7977 1.78 3.5502 3.7337 4.3015 1.207.4642 2.5018.38 3.7255.0315l-.0365 3.803v17.907l-22.3925-.013c-.6847-3.6218-2.5295-6.758-5.618-8.866-2.5025-1.708-5.7245-2.435-8.7112-1.8715-3.2005.604-6.116 2.6082-7.914 5.3105-1.0925 1.642-1.7837 3.5332-2.0845 5.478-2.3923-.1355-4.8388-.0453-7.2365-.0453-5.0905 0-10.187.0542-15.2765-.019l-.1263.009c-.1675-7.3345.0263-14.6913-.0587-22.03l-.509-.3953c-1.0893-.7057-1.613-1.4717-2.009-2.6982.0825-1.341-.047-2.7738-.0448-4.1263l.0635-.0192c.9735-1.579 2.275-3.0537 3.4275-4.509 2.1638-2.732 4.3413-5.4335 6.3785-8.263 2.877-.0452 5.898-.2372 8.7598-.046z" style="stroke-width:.25"/><path fill="#d5492a" d="M83.249 106.908c1.453.01 10.0732-.148 10.593.1735-.0283 1.1637-.0386 2.3222-.212 3.4755-.1296.4192-.2816.8285-.4786 1.2212-.604 1.206-1.737 2.1513-3.018 2.561-1.3524.4325-2.8464.2998-4.085-.403-1.5164-.8602-2.2174-2.1785-2.6717-3.795-.0935-1.071-.094-2.1585-.1278-3.2332zM105.051 106.9305c3.5064.0442 7.0272-.002 10.531.1045.0472.5585.0947 1.1125.1032 1.6735-.0572.5727-.1177 1.1312-.2405 1.6952-.1452.4368-.308.8818-.5345 1.284-.7572 1.345-2.0155 2.3838-3.5215 2.7653-1.34.3395-2.7922.1677-3.961-.5923-1.3747-.8945-2.0152-2.2532-2.3285-3.8092-.0795-1.0355-.0495-2.083-.0482-3.121z" style="stroke-width:.25"/><path fill="#d5d2d1" d="m125.6372 106.9215.1113.1692.1022.6403c.1323.805.2372 1.63.434 2.4212-.7535 1.8038-1.6695 3.404-3.5907 4.1678-1.2358.491-2.6688.4925-3.887-.0535-1.8888-.8463-2.453-2.192-3.3623-3.8628.1227-.564.1832-1.1225.2405-1.6952-.008-.561-.056-1.115-.1032-1.6735 1.7474.0685 8.7097.182 10.0552-.1135z" style="stroke-width:.25"/><path fill="#a8a59e" d="M125.8507 107.731c.1323.805.2372 1.63.434 2.4212-.7535 1.8038-1.6695 3.404-3.5907 4.1678-1.2358.491-2.6688.4925-3.887-.0535-1.8888-.8463-2.453-2.192-3.3623-3.8628.1227-.564.1832-1.1225.2405-1.6952.52.8152.8043 1.7335 1.3618 2.539.779 1.1257 2.0714 2.0767 3.443 2.296 1.095.1752 2.1564-.1618 3.0212-.8393 1.6142-1.265 2.0692-3.0502 2.3395-4.9732z" style="stroke-width:.25"/><path fill="#d5d2d1" d="m82.8744 106.9155.3746-.008c.0337 1.0747.0342 2.1622.1277 3.2332-.9028 1.816-1.727 3.505-3.8253 4.1955-1.3752.4528-2.8234.2615-4.1692-.1825l-.509-.3952c-1.0893-.7058-1.613-1.4718-2.009-2.6983.0825-1.341-.047-2.7737-.0447-4.1262l.0634-.0192c3.3268.0498 6.6698-.1055 9.9916.0002z" style="stroke-width:.25"/><path fill="#a8a59e" d="m82.8744 106.9155.3746-.008c.0337 1.0747.0342 2.1622.1277 3.2332-.9028 1.816-1.727 3.505-3.8253 4.1955-1.3752.4528-2.8234.2615-4.1692-.1825l-.509-.3952c.8125-.712 1.8375-1.2585 2.7033-1.9253 1.9247-1.4822 3.629-3.1587 5.298-4.9182z" style="stroke-width:.25"/><path fill="#d5492a" d="M125.7485 107.0907c1.2862-.4247 9.356-.042 11.4007-.0565l.4788 1.5258-.2503 1.5987c-.0285.0877-.0567.1755-.0875.2625-.5563 1.5773-1.6295 2.916-3.1685 3.6188-1.3142.6002-2.798.65-4.1385.1047-1.8315-.7447-2.9275-2.2522-3.6985-3.9925-.1967-.7912-.3017-1.6162-.434-2.4212z" style="stroke-width:.25"/><defs><linearGradient id="a" gradientUnits="userSpaceOnUse" x1="478.5527" y1="573.1929" x2="459.8953" y2="539.613" gradientTransform="matrix(.25 0 0 .25 -17.7053 -29.5818)"><stop offset="0" stop-color="#A79D9E"/><stop offset="1" stop-color="#DCD8D7"/></linearGradient></defs><path fill="url(#a)" d="M93.8932 106.9815c1.3518-.171 2.7862-.0718 4.1495-.0685l7.0083.0175c-.001 1.038-.0313 2.0855.0481 3.121l-.1187.2055c-1.1408 2.0047-1.5443 3.4707-4.0958 4.18-1.4025.39-2.8802.2202-4.1267-.541-1.651-1.0085-2.091-2.51-3.128-3.339.1735-1.1533.1837-2.3118.212-3.4755z" style="fill:url(#a);stroke-width:.25"/><path fill="#fefdfd" d="M99.2122 94.0715c1.5028-.014 3.0005-.003 4.503.0377 1.0433.0285 2.2725.1675 3.2995-.0018l.9317.0503 6.0748.006c.3975 4.297 1.0032 8.5915 1.5607 12.8712-3.5037-.107-7.0245-.0603-10.531-.1045l-7.0082-.0175c-1.3633-.003-2.7978-.1025-4.1495.0685.4785-1.714 1.4385-3.469 2.1502-5.1087 1.12-2.5795 2.1613-5.1765 3.1688-7.8013z" style="stroke-width:.25"/><path fill="#ea6834" d="m107.9464 94.1577 6.0748.006c.3975 4.297 1.0032 8.5915 1.5608 12.8713-3.5038-.107-7.0246-.0603-10.531-.1045.7107-4.2948 1.8622-8.5465 2.8954-12.7728z" style="stroke-width:.25"/><path fill="#ea6834" d="M114.0212 94.1637c2.1898-.0035 4.3898-.0522 6.5782.007l6.5703.0145.1137.0258c.6288.122 1.2558.0717 1.892.048.5998 1.3272 1.4783 2.576 2.2658 3.7997 1.8912 2.9395 4.073 5.894 5.708 8.9755-2.0448.0145-10.1145-.3682-11.4008.0565l-.1112-.1692c-1.3455.2955-8.3078.182-10.0553.1135-.5575-4.2798-1.1632-8.5743-1.5607-12.8713z" style="stroke-width:.25"/><path fill="#fefdfd" d="M114.0212 94.1637c2.1898-.0035 4.3898-.0522 6.5782.007 1.4675 4.33 3.543 8.4295 5.0378 12.7508-1.3455.2955-8.3078.182-10.0553.1135-.5575-4.2798-1.1632-8.5743-1.5607-12.8713zM93.203 94.1c2.004.0117 4.0057.021 6.0092-.0285-1.0075 2.6247-2.0488 5.2217-3.1688 7.8012-.7117 1.6398-1.6717 3.3948-2.1502 5.1088l-.0512.1c-.5198-.3215-9.14-.164-10.593-.1735l-.3746.008c-3.3217-.1058-6.6647.0495-9.9914-.0003.9734-1.579 2.275-3.0537 3.4274-4.509 2.1638-2.732 4.3413-5.4335 6.3785-8.263 2.877-.0452 5.898-.2372 8.7598-.046z" style="stroke-width:.25"/><path fill="#ea6834" d="M93.203 94.1c2.004.0117 4.0057.021 6.0092-.0285-1.0075 2.6247-2.0488 5.2217-3.1688 7.8012-.7117 1.6398-1.6717 3.3948-2.1502 5.1088l-.0512.1c-.5198-.3215-9.14-.164-10.593-.1735.8054-1.4818 1.9137-2.913 2.846-4.3253 1.8407-2.7887 3.6622-5.603 5.3537-8.4855z" style="stroke-width:.25"/><path fill="#fefdfd" d="M104.9155 114.8537c.6887.9263 1.3375 1.8395 2.2607 2.5503 1.058.8147 2.3665 1.23 3.6995 1.0405 2.116-.3005 3.261-1.8813 4.456-3.448.776.9845 1.5715 1.9307 2.6518 2.5942 1.3462.8268 2.9447 1.088 4.4732.6575 1.7335-.4885 2.8593-1.8297 3.685-3.3497.5813.7757 1.1648 1.54 1.8985 2.1795 1.1698 1.0202 2.5973 1.5937 4.163 1.452 2.364-.214 3.7553-1.8773 5.1648-3.5653.5742.7913 1.165 1.5855 1.9212 2.2143 1.6913 1.4065 3.4585 1.2752 5.5113 1.1157v17.907l-22.3925-.013c-.6848-3.6217-2.5295-6.758-5.618-8.866-2.5025-1.708-5.7245-2.435-8.7113-1.8715-3.2005.604-6.116 2.6083-7.914 5.3105-1.0925 1.642-1.7837 3.5333-2.0845 5.478-2.3922-.1355-4.8387-.0453-7.2365-.0453-5.0905 0-10.187.0542-15.2765-.019-.031-5.9742.086-11.9642-.0935-17.935 1.145.212 2.2918.3665 3.4518.1623 2.05-.361 3.3967-1.8628 4.504-3.506.8217 1.0575 1.6015 2.077 2.7727 2.774 1.248.7427 2.7033.972 4.1063.5695 1.7597-.5045 2.7042-1.8413 3.5697-3.337.8633.9965 1.7155 1.9825 2.8433 2.689 1.2915.8092 2.7992 1.125 4.293.7547 1.9355-.4795 2.9415-1.8795 3.901-3.4932z" style="stroke-width:.25"/><path fill="#fbe8bb" d="m145.5344 77.9175 50.3883.0212-.1135 46.6035-22.0807-.01.002 5.471 2.0622.014c-.002 1.6043-.0277 3.2123-.0002 4.816.01 1.996.0245 3.9923.002 5.9883-9.1483-.1395-17.9515.7017-26.8828 2.7727-1.368.2263-2.727.4735-4.0855.7513l-.006-1.9928c-.145-2.0257-.0355-4.119-.0192-6.1515v-17.907l.0365-3.803c-1.2237.3485-2.5185.4328-3.7255-.0315-1.9537-.7512-2.9285-2.5037-3.7337-4.3015l.2502-1.5987-.4787-1.5258c-1.635-3.0815-3.8168-6.036-5.708-8.9755-.7875-1.2237-1.666-2.4725-2.2658-3.7997 1.5448-.1198 6.0313-.2853 7.413-.0235 1.8893.0762 3.782.0422 5.6723.0372.953-.0028 1.9965-.08 2.9362.0735l.1478-.136c.4702-1.1437.1952-14.0637.1897-16.2927z" style="stroke-width:.25"/><path fill="#fcdf86" d="M166.7682 98.6865c1.1155-.031 2.495-.214 3.5707.0965.454.131.8486.3672 1.0673.8052.199.3983.2477 1.0763.0397 1.4768-.2367.4552-.7435.681-1.1972.8462-1.0878.0237-2.247.1198-3.3185-.0877-.5735-.111-1.398-.3275-1.695-.892-.1273-.2417-.0892-.5135.008-.7565.3362-.838.7235-1.1412 1.5245-1.4885zM165.7544 129.5565l5.0938.0007c.5913.5073.9605 1.0353 1.3242 1.7185-.3817.8738-.6505 1.405-1.4535 1.975-1.2554.1988-3.0422.2375-4.2897.0515-.602-.0898-1.2555-.3225-1.6175-.8427-.287-.4118-.3192-.9408-.232-1.4213.1273-.6995.6278-1.089 1.1747-1.4817zM155.093 123.4527c1.3955-.0418 3.791-.248 5.0957.0585.4805.113.9087.4263 1.1493.8583.241.4327.2792.9635.1362 1.435-.1802.5942-.5913.946-1.1122 1.243-1.2243.0123-4.283.3082-5.28-.0582-.5478-.2013-.9815-.5498-1.2108-1.0975-.1882-.4498-.1867-.9473.0185-1.3915.2445-.5298.674-.8438 1.2032-1.0475zM187.382 96.4487c1.5727-.0345 3.6392-.3182 5.145.155.5045.1588 1.0615.4688 1.2777.98.2188.5165.0225 1.0848-.1928 1.5665-.266.595-.6532.793-1.2412 1.0145-1.4667.0292-3.2708.3113-4.6993.003-.6335-.1367-1.2492-.4625-1.6005-1.0257-.219-.351-.295-.7365-.1722-1.1378.2245-.734.8305-1.2195 1.4832-1.5552zM179.846 85.6837c1.3157-.016 4.0024-.385 5.1522.1658.5805.278 1.045.7935 1.2368 1.41.1422.458.118.9457-.1328 1.3612-.3488.5778-.9235.838-1.5513 1.0003-1.5872.048-4.0877.406-5.5432-.2295-.4345-.1898-.7748-.5195-.9245-.975-.1812-.551-.0495-1.1785.2175-1.679.3465-.65.865-.8718 1.5453-1.0538z" style="stroke-width:.25"/><path fill="#d5492a" d="M158.142 107.1755c.6342.66.7895 1.304.7517 2.218-.06 1.444-.786 2.9362-1.859 3.8967-1.0088.9033-2.3573 1.3958-3.7125 1.3065-1.365-.09-2.568-.815-3.44-1.847-.3795-.449-.6755-.948-.9685-1.455-.0898-.3655-.2015-.691-.349-1.0372.175-1.191.008-1.9955-.4978-3.0598z" style="stroke-width:.25"/><path fill="#ea6834" d="M136.5884 94.2355c1.8893.0762 3.782.0422 5.6723.0372.953-.0028 1.9965-.08 2.9362.0735.2623 1.303 11.2248 11.1263 12.945 12.8293l-10.075.0223-.1727-.178c-1.1655-1.7418-2.6488-3.2035-4.0663-4.7355-2.4415-2.6388-4.9745-5.2588-7.2395-8.0488z" style="stroke-width:.25"/><path fill="#fefdfd" d="M129.1755 94.259c1.5447-.1198 6.0312-.2853 7.413-.0235 2.265 2.79 4.798 5.41 7.2395 8.0487 1.4175 1.532 2.9007 2.9938 4.0662 4.7355-.9765.4013-9.1158.0498-10.745.0145-1.635-3.0815-3.8167-6.036-5.708-8.9755-.7875-1.2237-1.666-2.4725-2.2658-3.7997z" style="stroke-width:.25"/><path fill="#006883" d="m147.8942 107.0197.1727.178c.5058 1.0643.6728 1.8688.4978 3.0598.1475.3462.2593.6717.349 1.0372l-.002 32.3c-1.368.2263-2.727.4735-4.0855.7513l-.006-1.9928c-.145-2.0257-.0355-4.119-.0192-6.1515v-17.907l.0365-3.803c-1.2238.3485-2.5185.4328-3.7255-.0315-1.9538-.7512-2.9285-2.5037-3.7338-4.3015l.2503-1.5987-.4788-1.5258c1.6293.0353 9.7685.3868 10.745-.0145z" style="stroke-width:.25"/><path fill="#a8a59e" d="M137.628 108.56c.6257 2.0207 1.5985 3.945 3.5602 4.958 1.1692.6035 2.4487.748 3.7443.7905l-.0113 18.8162c-.006 3.027.1755 6.22-.1015 9.2285-.145-2.0257-.0355-4.119-.0192-6.1515v-17.907l.0365-3.803c-1.2237.3485-2.5185.4328-3.7255-.0315-1.9537-.7512-2.9285-2.5037-3.7337-4.3015z" style="stroke-width:.25"/><path fill="#d5d2d1" d="m147.8942 107.0197.1727.178c.5058 1.0643.6728 1.8688.4978 3.0598-.503 1.5777-1.162 2.9405-2.7345 3.7055a5.7573 5.7573 0 0 1-.8977.3455c-1.2955-.0425-2.575-.187-3.7443-.7905-1.9617-1.013-2.9345-2.9373-3.5602-4.958l-.4788-1.5258c1.6293.0353 9.7685.3868 10.745-.0145z" style="stroke-width:.25"/></svg>